<?xml version="1.0" encoding="UTF-8" standalone="no"?>
<!-- Created with Inkscape (http://www.inkscape.org/) -->

<svg
   xmlns:dc="http://purl.org/dc/elements/1.1/"
   xmlns:cc="http://creativecommons.org/ns#"
   xmlns:rdf="http://www.w3.org/1999/02/22-rdf-syntax-ns#"
   xmlns:svg="http://www.w3.org/2000/svg"
   xmlns="http://www.w3.org/2000/svg"
   xmlns:sodipodi="http://sodipodi.sourceforge.net/DTD/sodipodi-0.dtd"
   xmlns:inkscape="http://www.inkscape.org/namespaces/inkscape"
   width="22"
   height="22"
   id="svg3232"
   version="1.1"
   inkscape:version="0.48.0 r9654"
   sodipodi:docname="cpu.svg"
   inkscape:export-filename="/home/joerg/icons/cpu.png"
   inkscape:export-xdpi="90"
   inkscape:export-ydpi="90">
  <defs
     id="defs3234">
    <marker
       inkscape:stockid="Arrow1Mend"
       orient="auto"
       refY="0.0"
       refX="0.0"
       id="Arrow1Mend"
       style="overflow:visible;">
      <path
         id="path3790"
         d="M 0.0,0.0 L 5.0,-5.0 L -12.5,0.0 L 5.0,5.0 L 0.0,0.0 z "
         style="fill-rule:evenodd;stroke:#000000;stroke-width:1.0pt;marker-start:none;"
         transform="scale(0.4) rotate(180) translate(10,0)" />
    </marker>
    <marker
       inkscape:stockid="Arrow2Lstart"
       orient="auto"
       refY="0.0"
       refX="0.0"
       id="Arrow2Lstart"
       style="overflow:visible">
      <path
         id="path3799"
         style="font-size:12.0;fill-rule:evenodd;stroke-width:0.62500000;stroke-linejoin:round"
         d="M 8.7185878,4.0337352 L -2.2072895,0.016013256 L 8.7185884,-4.0017078 C 6.9730900,-1.6296469 6.9831476,1.6157441 8.7185878,4.0337352 z "
         transform="scale(1.1) translate(1,0)" />
    </marker>
    <marker
       inkscape:stockid="Arrow1Sstart"
       orient="auto"
       refY="0.0"
       refX="0.0"
       id="Arrow1Sstart"
       style="overflow:visible">
      <path
         id="path3793"
         d="M 0.0,0.0 L 5.0,-5.0 L -12.5,0.0 L 5.0,5.0 L 0.0,0.0 z "
         style="fill-rule:evenodd;stroke:#000000;stroke-width:1.0pt;marker-start:none"
         transform="scale(0.2) translate(6,0)" />
    </marker>
    <marker
       inkscape:stockid="Arrow1Lend"
       orient="auto"
       refY="0.0"
       refX="0.0"
       id="Arrow1Lend"
       style="overflow:visible;">
      <path
         id="path3784"
         d="M 0.0,0.0 L 5.0,-5.0 L -12.5,0.0 L 5.0,5.0 L 0.0,0.0 z "
         style="fill-rule:evenodd;stroke:#000000;stroke-width:1.0pt;marker-start:none;"
         transform="scale(0.8) rotate(180) translate(12.5,0)" />
    </marker>
    <marker
       inkscape:stockid="Arrow1Lstart"
       orient="auto"
       refY="0.0"
       refX="0.0"
       id="Arrow1Lstart"
       style="overflow:visible">
      <path
         id="path3781"
         d="M 0.0,0.0 L 5.0,-5.0 L -12.5,0.0 L 5.0,5.0 L 0.0,0.0 z "
         style="fill-rule:evenodd;stroke:#000000;stroke-width:1.0pt;marker-start:none"
         transform="scale(0.8) translate(12.5,0)" />
    </marker>
  </defs>
  <sodipodi:namedview
     id="base"
     pagecolor="#ffffff"
     bordercolor="#666666"
     borderopacity="1.0"
     inkscape:pageopacity="0.0"
     inkscape:pageshadow="2"
     inkscape:zoom="22.627417"
     inkscape:cx="13.201807"
     inkscape:cy="11.833982"
     inkscape:document-units="px"
     inkscape:current-layer="layer1"
     showgrid="false"
     inkscape:window-width="1918"
     inkscape:window-height="1040"
     inkscape:window-x="0"
     inkscape:window-y="19"
     inkscape:window-maximized="1"
     inkscape:snap-grids="true"
     inkscape:snap-page="false"
     inkscape:snap-to-guides="true" />
  <metadata
     id="metadata3237">
    <rdf:RDF>
      <cc:Work
         rdf:about="">
        <dc:format>image/svg+xml</dc:format>
        <dc:type
           rdf:resource="http://purl.org/dc/dcmitype/StillImage" />
        <dc:title />
      </cc:Work>
    </rdf:RDF>
  </metadata>
  <g
     inkscape:label="Ebene 1"
     inkscape:groupmode="layer"
     id="layer1"
     transform="translate(0,-1030.3622)">
    <path
       inkscape:connector-curvature="0"
       style="font-size:medium;font-style:normal;font-variant:normal;font-weight:normal;font-stretch:normal;text-indent:0;text-align:start;text-decoration:none;line-height:normal;letter-spacing:normal;word-spacing:normal;text-transform:none;direction:ltr;block-progression:tb;writing-mode:lr-tb;text-anchor:start;opacity:0;color:#000000;fill:#535d6c;fill-opacity:1;stroke:#000000;stroke-width:0.357;marker:none;visibility:visible;display:inline;overflow:visible;enable-background:accumulate;font-family:aClock;-inkscape-font-specification:aClock;stroke-miterlimit:4;stroke-dasharray:none;stroke-opacity:1"
       d="m 7.7693033,1034.6713 -2.751776,-0.029 -0.071019,3.1129 c -0.2216444,0 -1.7014491,0 -1.9230936,0 0,0.7104 0,1.3137 0,1.9297 0.2216445,0 1.7014492,0 1.9230936,0 l 0,2.1004 c -0.2216444,0 -1.7014491,0 -1.9230936,0 0,0.7102 0,1.5352 0,2.1511 2.235691,-0.01 -0.6055756,0 1.9317554,-0.01 l 0.025134,3.1885 2.5811181,0.036 c 0,0.231 0,1.7461 0,1.9772 0.6810402,0 1.5595389,-0.036 2.1502006,-0.036 0,-0.2312 0,-1.746 0,-1.9772 l 2.4385682,0 c 0,0.2312 0,1.746 0,1.9772 0.68104,0 1.535039,0 2.1257,0 -0.01298,-0.2382 0.01339,-1.7585 0.02239,-1.9959 l 2.63519,0.027 0.002,-3.2054 c 0.237977,0 1.693522,0 1.931499,0 0,-0.7681 0,-1.351 0,-2.062 -0.221644,0 -1.660857,0 -1.882502,0 l 0,-2.1718 c 0.221645,0 1.660858,0 1.882502,0 0,-0.7102 0,-1.3493 0,-1.9652 l -1.882502,0.01 0.01818,-3.0532 -2.726882,-0.037 c 0,-0.2311 0,-1.8037 0,-2.0348 -0.68104,0 -1.500393,0 -2.091056,0 0,0.2311 0,1.8037 0,2.0348 l -2.2999792,0 c 0.00762,-0.2263 0,-1.8677 0,-2.0348 -0.6298653,-0.025 -1.5435962,0.036 -2.1155302,0.036 -0.00756,0.3986 -0.00401,1.671 -5e-7,2.0329 z"
       id="use11599"
       inkscape:export-filename="/home/philipp/.icons/cpufreq-humanity-v1.6/cpufreq-humanity-v1.6/humanity-dark/cpufreq-na.png"
       inkscape:export-xdpi="90"
       inkscape:export-ydpi="90"
       sodipodi:nodetypes="ccccccccccccccccccccccccccccccccccccc" />
    <rect
       style="fill:#535d6c;fill-opacity:1;stroke:#000000;stroke-width:0.357;stroke-miterlimit:4;stroke-opacity:1;stroke-dasharray:none"
       id="rect3990"
       width="8.3112907"
       height="7.6129503"
       x="6.9620762"
       y="1036.9387"
       ry="0.086991064" />
    <rect
       style="opacity:0;fill:#535d6c;fill-opacity:1;stroke:#000000;stroke-width:0.357;stroke-linecap:butt;stroke-linejoin:miter;stroke-miterlimit:4;stroke-opacity:1;stroke-dasharray:none"
       id="rect5192"
       width="6.137321"
       height="3.4598684"
       x="1.5667692"
       y="1032.1732"
       ry="0.01260885" />
    <rect
       style="opacity:0;fill:#535d6c;fill-opacity:1;stroke:#000000;stroke-width:0.357;stroke-linecap:butt;stroke-linejoin:miter;stroke-miterlimit:4;stroke-opacity:1;stroke-dasharray:none"
       id="rect5194"
       width="3.1954648"
       height="1.9165452"
       x="3.169574"
       y="1032.6473"
       ry="0.01260885" />
    <rect
       style="opacity:0;fill:#535d6c;fill-opacity:1;stroke:#000000;stroke-width:0.357;stroke-linecap:butt;stroke-linejoin:miter;stroke-miterlimit:4;stroke-opacity:1;stroke-dasharray:none"
       id="rect5214"
       width="14.039757"
       height="2.3402026"
       x="4.5187702"
       y="1033.2123"
       ry="0.11452789" />
    <rect
       style="opacity:0;fill:#535d6c;fill-opacity:1;stroke:#000000;stroke-width:0.357;stroke-linecap:butt;stroke-linejoin:miter;stroke-miterlimit:4;stroke-opacity:1;stroke-dasharray:none"
       id="rect5253"
       width="5.7822695"
       height="1.8963711"
       x="2.4290376"
       y="1032.5061"
       ry="0.11362614" />
    <rect
       style="opacity:0;fill:#535d6c;fill-opacity:1;stroke:#000000;stroke-width:0.357;stroke-linecap:butt;stroke-linejoin:miter;stroke-miterlimit:4;stroke-opacity:1;stroke-dasharray:none"
       id="rect5253-8"
       width="5.7822695"
       height="1.8963711"
       x="-2.5112524"
       y="1032.7887"
       ry="0.11362614" />
    <rect
       style="opacity:0;fill:#535d6c;fill-opacity:1;stroke:#000000;stroke-width:0.357;stroke-linecap:butt;stroke-linejoin:miter;stroke-miterlimit:4;stroke-opacity:1;stroke-dasharray:none"
       id="rect5273"
       width="5.4779396"
       height="0.88766301"
       x="1.7189342"
       y="1032.5465"
       ry="0.11362614" />
    <path
       style="fill:#535d6c;fill-opacity:1;stroke:#000000;stroke-width:0.357;stroke-miterlimit:4;stroke-opacity:1;stroke-dasharray:none"
       d="m 2.5721136,1034.8546 0.024208,2.617 c 5.134e-4,0.038 0.031736,0.068 0.072627,0.068 l 2.0093051,-0.023 c 0.040889,-5e-4 0.073139,-0.03 0.072626,-0.068 l -0.024208,-2.5257 2.6871432,0 c 0.040892,0 0.072626,-0.031 0.072626,-0.068 l 0,-1.8885 c 0,-0.038 -0.031734,-0.068 -0.072626,-0.068 l -2.7839771,0 c -1.9843809,-0.1109 -2.0828269,0.022 -2.0577237,1.9563 z"
       id="rect5275"
       inkscape:connector-curvature="0"
       sodipodi:nodetypes="ccccccsssscc" />
    <path
       style="fill:#535d6c;fill-opacity:1;stroke:#000000;stroke-width:0.357;stroke-miterlimit:4;stroke-opacity:1;stroke-dasharray:none"
       d="m 19.736459,1033.0413 c 4.2e-5,-0.012 -0.0179,-0.013 -0.0231,-0.022 -0.01188,-0.022 -0.01853,-0.046 -0.04694,-0.046 -0.0097,-0.01 -0.01113,-0.023 -0.02309,-0.023 l -1.91604,0.015 -2.687131,0.014 c -0.03963,4e-4 -0.07039,0.03 -0.07054,0.068 l 0.01636,1.9023 c 3.84e-4,0.039 0.0304,0.07 0.07004,0.069 l 2.593595,-0.014 -0.0091,2.544 c -1.38e-4,0.039 0.0304,0.069 0.07004,0.069 l 1.939284,0.01 c 0.03963,0 0.07039,-0.031 0.07053,-0.068 l 0.0095,-2.6356 0.0067,-1.8793 z"
       id="rect5275-7"
       inkscape:connector-curvature="0" />
    <path
       style="fill:#535d6c;fill-opacity:1;stroke:#000000;stroke-width:0.357;stroke-miterlimit:4;stroke-opacity:1;stroke-dasharray:none"
       d="m 19.638758,1048.78 c 0.0118,0 0.01327,-0.018 0.02285,-0.023 0.02286,-0.012 0.04643,-0.018 0.04642,-0.047 0.0074,-0.01 0.02359,-0.012 0.02285,-0.023 l -0.01644,-1.8968 -0.01431,-2.6605 c -3.74e-4,-0.039 -0.03023,-0.07 -0.06856,-0.07 l -1.911897,0.016 c -0.03907,2e-4 -0.07003,0.031 -0.06928,0.07 l 0.01429,2.5677 -2.556866,-0.01 c -0.03907,0 -0.06927,0.03 -0.06927,0.07 l -0.0071,1.9199 c -6.8e-5,0.039 0.03023,0.07 0.06856,0.07 l 2.648931,0.01 1.888828,0.01 z"
       id="rect5275-7-5"
       inkscape:connector-curvature="0" />
    <path
       style="fill:#535d6c;fill-opacity:1;stroke:#000000;stroke-width:0.357;stroke-miterlimit:4;stroke-opacity:1;stroke-dasharray:none"
       d="m 2.7003108,1048.6196 c 1.1e-6,0.012 0.01848,0.014 0.023869,0.023 0.012322,0.024 0.019252,0.047 0.04851,0.047 0.010009,0.01 0.011551,0.024 0.023869,0.023 l 1.9730136,-0.018 2.7670395,-0.016 c 0.040806,-3e-4 0.072373,-0.031 0.072366,-0.07 l -0.017132,-1.9517 c -3.889e-4,-0.039 -0.031574,-0.071 -0.07238,-0.071 l -2.6706444,0.015 0.00898,-2.61 c 7.3e-5,-0.039 -0.031573,-0.071 -0.072379,-0.071 l -1.9969608,-0.01 c -0.040806,-1e-4 -0.072369,0.032 -0.072366,0.07 l -0.00897,2.704 -0.00752,1.9283 z"
       id="rect5275-7-5-6"
       inkscape:connector-curvature="0" />
    <rect
       style="fill:#535d6c;fill-opacity:1;stroke:#000000;stroke-width:0.357;stroke-miterlimit:4;stroke-opacity:1;stroke-dasharray:none"
       id="rect5352"
       width="4.1316934"
       height="1.9317588"
       x="9.2212057"
       y="1032.9111"
       ry="0.081805915" />
    <rect
       style="fill:#535d6c;fill-opacity:1;stroke:#000000;stroke-width:0.357;stroke-miterlimit:4;stroke-opacity:1;stroke-dasharray:none"
       id="rect5352-9"
       width="4.0541034"
       height="2.0598717"
       x="9.3155613"
       y="1046.7042"
       ry="0.087231211" />
    <rect
       style="fill:#535d6c;fill-opacity:1;stroke:#000000;stroke-width:0.357;stroke-miterlimit:4;stroke-opacity:1;stroke-dasharray:none"
       id="rect5352-9-8"
       width="2.1221962"
       height="3.3384826"
       x="2.6335921"
       y="1038.98"
       ry="0.14137767" />
    <rect
       style="fill:#535d6c;fill-opacity:1;stroke:#000000;stroke-width:0.357;stroke-miterlimit:4;stroke-opacity:1;stroke-dasharray:none"
       id="rect5352-9-8-9"
       width="2.0438526"
       height="3.6734202"
       x="17.679281"
       y="1038.8549"
       ry="0.1555616" />
  </g>
</svg>
