<?xml version="1.0" encoding="UTF-8" standalone="no"?>
<!-- Created with Inkscape (http://www.inkscape.org/) -->

<svg
   xmlns:dc="http://purl.org/dc/elements/1.1/"
   xmlns:cc="http://creativecommons.org/ns#"
   xmlns:rdf="http://www.w3.org/1999/02/22-rdf-syntax-ns#"
   xmlns:svg="http://www.w3.org/2000/svg"
   xmlns="http://www.w3.org/2000/svg"
   xmlns:sodipodi="http://sodipodi.sourceforge.net/DTD/sodipodi-0.dtd"
   xmlns:inkscape="http://www.inkscape.org/namespaces/inkscape"
   width="22"
   height="22"
   id="svg3123"
   version="1.1"
   inkscape:version="0.48.0 r9654"
   sodipodi:docname="Neues Dokument 10">
  <defs
     id="defs3125" />
  <sodipodi:namedview
     id="base"
     pagecolor="#ffffff"
     bordercolor="#666666"
     borderopacity="1.0"
     inkscape:pageopacity="0.0"
     inkscape:pageshadow="2"
     inkscape:zoom="22.4"
     inkscape:cx="8.1787536"
     inkscape:cy="10.780684"
     inkscape:document-units="px"
     inkscape:current-layer="layer1"
     showgrid="false"
     inkscape:window-width="1918"
     inkscape:window-height="1040"
     inkscape:window-x="0"
     inkscape:window-y="19"
     inkscape:window-maximized="0" />
  <metadata
     id="metadata3128">
    <rdf:RDF>
      <cc:Work
         rdf:about="">
        <dc:format>image/svg+xml</dc:format>
        <dc:type
           rdf:resource="http://purl.org/dc/dcmitype/StillImage" />
        <dc:title></dc:title>
      </cc:Work>
    </rdf:RDF>
  </metadata>
  <g
     inkscape:label="Ebene 1"
     inkscape:groupmode="layer"
     id="layer1"
     transform="translate(0,-1030.3622)">
    <path
       style="fill:#535d6c;fill-opacity:1"
       d="m 6.3587392,1050.7494 c -2.3922946,-0.6971 -3.3882551,-2.6946 -2.0438022,-4.0993 0.9860643,-1.0301 2.2031954,-1.4755 4.0194969,-1.4708 1.1519882,0 1.7997291,0.1056 2.5403371,0.4033 0.546742,0.2197 1.050553,0.3383 1.119553,0.2639 0.06901,-0.075 0.376943,-1.1717 0.684287,-2.4382 0.950373,-3.9161 2.726708,-10.7728 2.913607,-11.2466 0.175819,-0.4458 0.177784,-0.4448 0.193465,0.1022 0.02354,0.8206 0.723854,2.4064 1.878515,4.2535 1.609211,2.5743 1.886029,3.7164 1.246074,5.1411 -0.354842,0.7898 -1.146858,1.645 -0.853012,0.921 0.908769,-2.2392 0.766439,-2.9587 -1.013589,-5.1242 -0.484491,-0.5894 -1.022701,-1.3147 -1.19601,-1.6118 -0.321079,-0.5503 -0.600498,-0.7058 -0.600498,-0.3339 0,0.1134 -0.196922,1.5019 -0.437612,3.0854 -0.240672,1.5836 -0.668443,4.4489 -0.950592,6.3675 -0.554873,3.773 -0.732366,4.2492 -1.874513,5.0286 -1.283021,0.8754 -3.977275,1.2387 -5.6257068,0.7583 z"
       id="path3110"
       inkscape:connector-curvature="0" />
  </g>
</svg>
