<?xml version="1.0" encoding="UTF-8" standalone="no"?>
<!-- Created with Inkscape (http://www.inkscape.org/) -->

<svg
   xmlns:dc="http://purl.org/dc/elements/1.1/"
   xmlns:cc="http://creativecommons.org/ns#"
   xmlns:rdf="http://www.w3.org/1999/02/22-rdf-syntax-ns#"
   xmlns:svg="http://www.w3.org/2000/svg"
   xmlns="http://www.w3.org/2000/svg"
   xmlns:sodipodi="http://sodipodi.sourceforge.net/DTD/sodipodi-0.dtd"
   xmlns:inkscape="http://www.inkscape.org/namespaces/inkscape"
   id="svg3004"
   version="1.1"
   inkscape:version="0.48.0 r9654"
   width="14"
   height="14"
   sodipodi:docname="pacman.png.2011_01_30_10_23_57.0.svg">
  <metadata
     id="metadata3010">
    <rdf:RDF>
      <cc:Work
         rdf:about="">
        <dc:format>image/svg+xml</dc:format>
        <dc:type
           rdf:resource="http://purl.org/dc/dcmitype/StillImage" />
      </cc:Work>
    </rdf:RDF>
  </metadata>
  <defs
     id="defs3008" />
  <sodipodi:namedview
     pagecolor="#ffffff"
     bordercolor="#666666"
     borderopacity="1"
     objecttolerance="10"
     gridtolerance="10"
     guidetolerance="10"
     inkscape:pageopacity="0"
     inkscape:pageshadow="2"
     inkscape:window-width="1918"
     inkscape:window-height="1040"
     id="namedview3006"
     showgrid="false"
     inkscape:zoom="29.7995"
     inkscape:cx="-6.2696995"
     inkscape:cy="9.1911582"
     inkscape:window-x="0"
     inkscape:window-y="19"
     inkscape:window-maximized="0"
     inkscape:current-layer="svg3004" />
  <path
     style="opacity:0.81976743;fill:#535d6c;fill-opacity:1;fill-rule:nonzero;stroke:none"
     d="M 6.6863565,2.3640299 C 5.452177,2.4596483 4.2704687,3.0162338 3.4215918,4.0139647 1.7238379,6.0094265 2.0197523,8.9802699 4.0885867,10.683915 6.1574211,12.387559 9.2012021,12.152802 10.898956,10.157339 6.0160358,6.8888442 6.7055977,7.1110955 11.987211,7.1032045 11.966478,5.7049037 11.334522,4.395327 10.231962,3.4873898 9.1975439,2.6355677 7.9205358,2.2684116 6.6863565,2.3640299 z m 0.8839963,1.4237513 c 0.6037691,0 1.1636493,0.3388553 1.1636493,1.0050834 0,0.6662282 -0.5598802,0.964794 -1.1636493,0.964794 -0.6037693,0 -1.2530422,-0.5939623 -1.0505578,-1.2286748 C 6.7082815,3.9381502 6.9665835,3.7877812 7.5703528,3.7877812 z"
     id="path3784"
     inkscape:connector-curvature="0"
     sodipodi:nodetypes="sssccsssssss" />
</svg>
