<?xml version="1.0" encoding="UTF-8" standalone="no"?>
<!-- Created with Inkscape (http://www.inkscape.org/) -->

<svg
   xmlns:dc="http://purl.org/dc/elements/1.1/"
   xmlns:cc="http://creativecommons.org/ns#"
   xmlns:rdf="http://www.w3.org/1999/02/22-rdf-syntax-ns#"
   xmlns:svg="http://www.w3.org/2000/svg"
   xmlns="http://www.w3.org/2000/svg"
   xmlns:sodipodi="http://sodipodi.sourceforge.net/DTD/sodipodi-0.dtd"
   xmlns:inkscape="http://www.inkscape.org/namespaces/inkscape"
   version="1.0"
   width="22"
   height="22"
   id="svg3233"
   inkscape:version="0.48.0 r9654"
   sodipodi:docname="volume.svg">
  <metadata
     id="metadata11">
    <rdf:RDF>
      <cc:Work
         rdf:about="">
        <dc:format>image/svg+xml</dc:format>
        <dc:type
           rdf:resource="http://purl.org/dc/dcmitype/StillImage" />
      </cc:Work>
    </rdf:RDF>
  </metadata>
  <sodipodi:namedview
     pagecolor="#ffffff"
     bordercolor="#666666"
     borderopacity="1"
     objecttolerance="10"
     gridtolerance="10"
     guidetolerance="10"
     inkscape:pageopacity="0"
     inkscape:pageshadow="2"
     inkscape:window-width="1918"
     inkscape:window-height="1040"
     id="namedview9"
     showgrid="false"
     inkscape:zoom="18.963318"
     inkscape:cx="0.78498879"
     inkscape:cy="8.3460896"
     inkscape:window-x="0"
     inkscape:window-y="19"
     inkscape:window-maximized="0"
     inkscape:current-layer="layer1" />
  <defs
     id="defs3235" />
  <g
     transform="translate(-0.9870662,-1.014524)"
     id="layer1">
    <path
       d="m 18.159791,5.6209309 c 0,0 2.323861,1.9569648 2.241181,6.0617011 -0.08337,4.138785 -2.278506,6.061702 -2.278506,6.061702 M 14.34455,8.0058771 c 0,0 1.238494,0.8916534 1.270061,3.6234859 0.03118,2.697776 -1.270061,3.730025 -1.270061,3.730025"
       id="path3305"
       style="fill:none;stroke:#535d6c;stroke-width:2.02037978;stroke-linecap:round;stroke-linejoin:miter;stroke-miterlimit:4;stroke-opacity:1;stroke-dasharray:none;stroke-dashoffset:0;marker:none;visibility:visible;display:inline;overflow:visible;enable-background:accumulate"
       inkscape:connector-curvature="0" />
    <path
       d="m 9.4962238,5.5138452 c -0.3843697,0 -0.713431,0.1435191 -0.9444792,0.3855492 L 5.7183072,8.8786383 c 0,0 -2.518611,0 -2.518611,0 -0.6951366,0 -1.2593055,0.5024757 -1.2593055,1.1215977 -0.00789,1.117191 0.00279,2.259513 0,3.364793 0,0.619122 0.564169,1.121598 1.2593055,1.121598 l 2.518611,0 2.7153775,2.768944 c 0.2157926,0.341996 0.5909976,0.595849 1.0625391,0.595849 0.6951362,0 1.2593062,-0.502476 1.2593052,-1.121598 l 0,-10.0943791 c 0,-0.6191219 -0.564169,-1.1215977 -1.2593052,-1.1215977 z"
       id="rect3180"
       style="fill:#535d6c;fill-opacity:1;fill-rule:evenodd;stroke:none;stroke-width:1.69999993;marker:none;visibility:visible;display:inline;overflow:visible;enable-background:accumulate"
       inkscape:connector-curvature="0" />
  </g>
</svg>
