<?xml version="1.0" encoding="UTF-8" standalone="no"?>
<!-- Created with Inkscape (http://www.inkscape.org/) -->

<svg
   xmlns:dc="http://purl.org/dc/elements/1.1/"
   xmlns:cc="http://creativecommons.org/ns#"
   xmlns:rdf="http://www.w3.org/1999/02/22-rdf-syntax-ns#"
   xmlns:svg="http://www.w3.org/2000/svg"
   xmlns="http://www.w3.org/2000/svg"
   xmlns:sodipodi="http://sodipodi.sourceforge.net/DTD/sodipodi-0.dtd"
   xmlns:inkscape="http://www.inkscape.org/namespaces/inkscape"
   version="1.0"
   width="22"
   height="22"
   id="svg3172"
   inkscape:version="0.48.0 r9654"
   sodipodi:docname="wifi.svg">
  <metadata
     id="metadata17">
    <rdf:RDF>
      <cc:Work
         rdf:about="">
        <dc:format>image/svg+xml</dc:format>
        <dc:type
           rdf:resource="http://purl.org/dc/dcmitype/StillImage" />
      </cc:Work>
    </rdf:RDF>
  </metadata>
  <sodipodi:namedview
     pagecolor="#ffffff"
     bordercolor="#666666"
     borderopacity="1"
     objecttolerance="10"
     gridtolerance="10"
     guidetolerance="10"
     inkscape:pageopacity="0"
     inkscape:pageshadow="2"
     inkscape:window-width="1918"
     inkscape:window-height="1040"
     id="namedview15"
     showgrid="false"
     inkscape:zoom="26.818182"
     inkscape:cx="5.1271186"
     inkscape:cy="11.642971"
     inkscape:window-x="0"
     inkscape:window-y="19"
     inkscape:window-maximized="0"
     inkscape:current-layer="layer1" />
  <defs
     id="defs3174" />
  <g
     transform="matrix(0,-1,1,0,-2,26.000066)"
     id="layer1">
    <g
       id="g3691"
       style="stroke:#535d6c;stroke-opacity:1">
      <path
         d="m 18.354501,4.85 c 0,0 2.613537,2.422712 2.613537,7.634915 0,5.18658 -2.617972,7.665085 -2.617972,7.665085"
         id="path3683"
         style="fill:none;stroke:#535d6c;stroke-width:1.70000005000000010;stroke-linecap:round;stroke-linejoin:miter;stroke-miterlimit:4;stroke-opacity:1;stroke-dasharray:none;stroke-dashoffset:0;marker:none;visibility:visible;display:inline;overflow:visible;enable-background:accumulate" />
      <path
         d="m 15.279705,7.095476 c 0,0 1.845351,1.744801 1.779696,5.404524 -0.0662,3.690079 -1.809335,5.404524 -1.809335,5.404524"
         id="path3681"
         style="fill:none;stroke:#535d6c;stroke-width:1.70000005000000010;stroke-linecap:round;stroke-linejoin:miter;stroke-miterlimit:4;stroke-opacity:1;stroke-dasharray:none;stroke-dashoffset:0;marker:none;visibility:visible;display:inline;overflow:visible;enable-background:accumulate" />
      <path
         d="m 12.050066,9.122 c 0,0 0.983474,0.894844 1.008541,3.330506 0.02476,2.405297 -1.008541,3.425494 -1.008541,3.425494"
         id="path3209"
         style="fill:none;stroke:#535d6c;stroke-width:1.70000005000000010;stroke-linecap:round;stroke-linejoin:miter;stroke-miterlimit:4;stroke-opacity:1;stroke-dasharray:none;stroke-dashoffset:0;marker:none;visibility:visible;display:inline;overflow:visible;enable-background:accumulate" />
    </g>
    <path
       d="m 9.9696055,11.45 c 0,-0.5796 -0.448,-1.05 -1,-1.05 -0.205137,0 -0.395912,0.06497 -0.554668,0.176357 0,0 -1.202158,1.237558 -1.202158,1.237558 -0.1515023,0.18406 -0.2431743,0.423901 -0.2431743,0.686086 0,0.311113 0.129081,0.590765 0.3340393,0.783089 0,0 1.065596,1.106515 1.065596,1.106515 C 8.5364715,14.52169 8.7443815,14.6 8.9696055,14.6 c 0.552,0 1,-0.4704 1,-1.05 0,0 0,-2.1 0,-2.1 z"
       id="path3196-5"
       style="fill:#535d6c;fill-opacity:1;fill-rule:evenodd;stroke:none;stroke-width:1.69999992999999994;marker:none;visibility:visible;display:inline;overflow:visible;enable-background:accumulate" />
  </g>
</svg>
